<svg width="15" height="16" viewBox="0 0 15 16" fill="none" xmlns="http://www.w3.org/2000/svg">
<g clip-path="url(#clip0_230_463)">
<path fill-rule="evenodd" clip-rule="evenodd" d="M0 8.49609C0 6.50697 0.790176 4.59932 2.1967 3.19279C3.60322 1.78627 5.51088 0.996094 7.5 0.996094C9.48912 0.996094 11.3968 1.78627 12.8033 3.19279C14.2098 4.59932 15 6.50697 15 8.49609C15 10.4852 14.2098 12.3929 12.8033 13.7994C11.3968 15.2059 9.48912 15.9961 7.5 15.9961C5.51088 15.9961 3.60322 15.2059 2.1967 13.7994C0.790176 12.3929 0 10.4852 0 8.49609H0ZM7.072 11.7061L11.39 6.30809L10.61 5.68409L6.928 10.2851L4.32 8.11209L3.68 8.88009L7.072 11.7071V11.7061Z" fill="#034488"/>
</g>
<defs>
<clipPath id="clip0_230_463">
<rect width="15" height="15" fill="white" transform="translate(0 0.996094)"/>
</clipPath>
</defs>
</svg>
