<svg width="38" height="38" viewBox="0 0 38 38" fill="none" xmlns="http://www.w3.org/2000/svg">
<path d="M19 0C8.50646 0 0 8.50646 0 19C0 29.4935 8.50646 38 19 38C29.4935 38 38 29.4935 38 19C38 8.50646 29.4935 0 19 0ZM14.349 26.8751H10.5015V14.4934H14.349V26.8751ZM12.4015 12.9734C11.1862 12.9734 10.4005 12.1125 10.4005 11.0477C10.4005 9.96115 11.21 9.12594 12.4509 9.12594C13.6919 9.12594 14.4519 9.96115 14.4756 11.0477C14.4756 12.1125 13.6919 12.9734 12.4015 12.9734ZM28.401 26.8751H24.5535V20.0133C24.5535 18.4161 23.9954 17.3316 22.6041 17.3316C21.5413 17.3316 20.9099 18.0658 20.6308 18.7724C20.5279 19.0238 20.5022 19.38 20.5022 19.7343V26.8731H16.6527V18.4419C16.6527 16.8961 16.6032 15.6037 16.5518 14.4915H19.8946L20.0707 16.2114H20.1479C20.6546 15.4039 21.8955 14.2124 23.9717 14.2124C26.503 14.2124 28.401 15.9085 28.401 19.5542V26.8751Z" fill="white"/>
<rect x="9" y="9" width="22" height="19" fill="white"/>
<path d="M30 14.6703V24.5385C30 25.4565 29.6378 26.337 28.9932 26.9861C28.3485 27.6353 27.4742 28 26.5625 28H11.4375C10.5258 28 9.65148 27.6353 9.00682 26.9861C8.36216 26.337 8 25.4565 8 24.5385V14.6703L18.6508 20.9814C18.7566 21.0442 18.8772 21.0774 19 21.0774C19.1228 21.0774 19.2434 21.0442 19.3492 20.9814L30 14.6703ZM26.5625 10C27.4083 9.99987 28.2245 10.3138 28.8549 10.8816C29.4853 11.4495 29.8857 12.2315 29.9794 13.078L19 19.5815L8.02063 13.078C8.11434 12.2315 8.5147 11.4495 9.14509 10.8816C9.77549 10.3138 10.5917 9.99987 11.4375 10H26.5625Z" fill="#034488"/>
</svg>
