<svg width="38" height="38" viewBox="0 0 38 38" fill="none" xmlns="http://www.w3.org/2000/svg">
<path d="M19 0C8.50646 0 0 8.50646 0 19C0 29.4935 8.50646 38 19 38C29.4935 38 38 29.4935 38 19C38 8.50646 29.4935 0 19 0ZM14.349 26.8751H10.5015V14.4934H14.349V26.8751ZM12.4015 12.9734C11.1862 12.9734 10.4005 12.1125 10.4005 11.0477C10.4005 9.96115 11.21 9.12594 12.4509 9.12594C13.6919 9.12594 14.4519 9.96115 14.4756 11.0477C14.4756 12.1125 13.6919 12.9734 12.4015 12.9734ZM28.401 26.8751H24.5535V20.0133C24.5535 18.4161 23.9954 17.3316 22.6041 17.3316C21.5413 17.3316 20.9099 18.0658 20.6308 18.7724C20.5279 19.0238 20.5022 19.38 20.5022 19.7343V26.8731H16.6527V18.4419C16.6527 16.8961 16.6032 15.6037 16.5518 14.4915H19.8946L20.0707 16.2114H20.1479C20.6546 15.4039 21.8955 14.2124 23.9717 14.2124C26.503 14.2124 28.401 15.9085 28.401 19.5542V26.8751Z" fill="white"/>
<rect x="9.01758" y="9.0166" width="19.9661" height="19.322" fill="#034488"/>
<path d="M27.0509 20.4266V26.4068H23.6003V20.8262C23.6003 19.4254 23.1012 18.4694 21.8517 18.4694C20.8985 18.4694 20.3301 19.1132 20.0805 19.7376C19.9903 19.9608 19.9662 20.2714 19.9662 20.5819V26.4068H16.514C16.514 26.4068 16.5607 16.9569 16.514 15.9783H19.9662V17.4551L19.9436 17.4891H19.9662V17.4568C20.4251 16.745 21.243 15.7324 23.077 15.7324C25.3474 15.7324 27.0509 17.2238 27.0509 20.4266ZM12.9024 10.9492C11.7221 10.9492 10.9492 11.7289 10.9492 12.7512C10.9492 13.7541 11.6996 14.5548 12.8573 14.5548H12.8798C14.0842 14.5548 14.8329 13.7525 14.8329 12.7512C14.8104 11.7289 14.0842 10.9492 12.9024 10.9492ZM11.1537 26.4068H14.6059V15.9783H11.1537V26.4068Z" fill="white"/>
</svg>
