<svg width="38" height="38" viewBox="0 0 38 38" fill="none" xmlns="http://www.w3.org/2000/svg">
<circle cx="19" cy="19" r="19" fill="#034488"/>
<path d="M28 15.6325V23.3077C28 24.0217 27.7037 24.7065 27.1762 25.2114C26.6488 25.7163 25.9334 26 25.1875 26H12.8125C12.0666 26 11.3512 25.7163 10.8238 25.2114C10.2963 24.7065 10 24.0217 10 23.3077V15.6325L18.7143 20.5411C18.8008 20.59 18.8995 20.6157 19 20.6157C19.1005 20.6157 19.1992 20.59 19.2858 20.5411L28 15.6325ZM25.1875 12C25.8795 11.9999 26.5473 12.244 27.0631 12.6857C27.5789 13.1274 27.9064 13.7356 27.9831 14.394L19 19.4523L10.0169 14.394C10.0936 13.7356 10.4211 13.1274 10.9369 12.6857C11.4527 12.244 12.1205 11.9999 12.8125 12H25.1875Z" fill="white"/>
</svg>
