<svg width="38" height="38" viewBox="0 0 38 38" fill="none" xmlns="http://www.w3.org/2000/svg">
<circle cx="19" cy="19" r="19" fill="#034488"/>
<path d="M26.5604 10H11.538C10.7172 10 10 10.5906 10 11.4018V26.4575C10 27.2732 10.7172 28 11.538 28H26.556C27.3812 28 28 27.2683 28 26.4575V11.4018C28.0048 10.5906 27.3812 10 26.5604 10ZM15.5796 25.0039H13.0009V16.9862H15.5796V25.0039ZM14.3795 15.7672H14.361C13.5357 15.7672 13.0013 15.1529 13.0013 14.3839C13.0013 13.6008 13.5498 13.0009 14.3935 13.0009C15.2373 13.0009 15.7536 13.5964 15.772 14.3839C15.7716 15.1529 15.2373 15.7672 14.3795 15.7672ZM25.0039 25.0039H22.4252V20.62C22.4252 19.5697 22.0499 18.8521 21.117 18.8521C20.4042 18.8521 19.9823 19.3343 19.7947 19.804C19.7244 19.9727 19.7055 20.2025 19.7055 20.4372V25.0039H17.1269V16.9862H19.7055V18.102C20.0808 17.5676 20.667 16.7986 22.0311 16.7986C23.7238 16.7986 25.0043 17.9144 25.0043 20.3199L25.0039 25.0039Z" fill="white"/>
</svg>
